<?xml version="1.0" encoding="UTF-8" standalone="no"?>
<!-- Created with Inkscape (http://www.inkscape.org/) -->

<svg
   xmlns:dc="http://purl.org/dc/elements/1.1/"
   xmlns:cc="http://creativecommons.org/ns#"
   xmlns:rdf="http://www.w3.org/1999/02/22-rdf-syntax-ns#"
   xmlns:svg="http://www.w3.org/2000/svg"
   xmlns="http://www.w3.org/2000/svg"
   xmlns:sodipodi="http://sodipodi.sourceforge.net/DTD/sodipodi-0.dtd"
   xmlns:inkscape="http://www.inkscape.org/namespaces/inkscape"
   width="273.46875"
   height="323.28275"
   id="svg2"
   version="1.1"
   inkscape:version="0.48.5 r10040"
   sodipodi:docname="ad8210.svg">
  <defs
     id="defs4">
    <clipPath
       id="clipPath3526"
       clipPathUnits="userSpaceOnUse">
      <path
         id="path3528"
         d="m 345,635.16 4.32,0 0,6.72 -4.32,0 0,-6.72 z"
         inkscape:connector-curvature="0" />
    </clipPath>
    <clipPath
       clipPathUnits="userSpaceOnUse"
       id="clipPath4086">
      <rect
         style="fill:#0000ff;fill-rule:evenodd;stroke:#000000;stroke-width:0.80000001px;stroke-linecap:butt;stroke-linejoin:miter;stroke-opacity:1"
         id="rect4088"
         width="246.28572"
         height="329.14285"
         x="327.57141"
         y="-664.63641"
         transform="scale(1,-1)" />
    </clipPath>
  </defs>
  <sodipodi:namedview
     id="base"
     pagecolor="#ffffff"
     bordercolor="#666666"
     borderopacity="1.0"
     inkscape:pageopacity="0.0"
     inkscape:pageshadow="2"
     inkscape:zoom="0.70710678"
     inkscape:cx="-407.1991"
     inkscape:cy="-258.29019"
     inkscape:document-units="px"
     inkscape:current-layer="layer1"
     showgrid="false"
     inkscape:window-width="1918"
     inkscape:window-height="1059"
     inkscape:window-x="0"
     inkscape:window-y="19"
     inkscape:window-maximized="0"
     fit-margin-top="0"
     fit-margin-left="0"
     fit-margin-right="0"
     fit-margin-bottom="0" />
  <metadata
     id="metadata7">
    <rdf:RDF>
      <cc:Work
         rdf:about="">
        <dc:format>image/svg+xml</dc:format>
        <dc:type
           rdf:resource="http://purl.org/dc/dcmitype/StillImage" />
        <dc:title></dc:title>
      </cc:Work>
    </rdf:RDF>
  </metadata>
  <g
     inkscape:label="Layer 1"
     inkscape:groupmode="layer"
     id="layer1"
     transform="translate(-341.78571,-59.541468)">
    <g
       id="g3206"
       transform="matrix(1.25,0,0,-1.25,408.61071,90.42552)">
      <path
         inkscape:connector-curvature="0"
         d="M 0,0 0,-104.22"
         style="fill:none;stroke:#000000;stroke-width:0.75;stroke-linecap:square;stroke-linejoin:bevel;stroke-miterlimit:10;stroke-opacity:1;stroke-dasharray:none"
         id="path3208" />
    </g>
    <g
       id="g3210"
       transform="matrix(1.25,0,0,-1.25,416.41071,224.45052)">
      <path
         inkscape:connector-curvature="0"
         d="M 0,0 -6.24,3"
         style="fill:none;stroke:#000000;stroke-width:0.75;stroke-linecap:square;stroke-linejoin:bevel;stroke-miterlimit:10;stroke-opacity:1;stroke-dasharray:none"
         id="path3212" />
    </g>
    <g
       id="g3214"
       transform="matrix(1.25,0,0,-1.25,416.71071,220.40052)">
      <path
         inkscape:connector-curvature="0"
         d="M 0,0 0,-12.48"
         style="fill:none;stroke:#000000;stroke-width:0.75;stroke-linecap:square;stroke-linejoin:bevel;stroke-miterlimit:10;stroke-opacity:1;stroke-dasharray:none"
         id="path3216" />
    </g>
    <g
       id="g3218"
       transform="matrix(1.25,0,0,-1.25,433.58571,228.20052)">
      <path
         inkscape:connector-curvature="0"
         d="M 0,0 -13.26,0"
         style="fill:none;stroke:#000000;stroke-width:0.75;stroke-linecap:square;stroke-linejoin:bevel;stroke-miterlimit:10;stroke-opacity:1;stroke-dasharray:none"
         id="path3220" />
    </g>
    <g
       id="g3222"
       transform="matrix(1.25,0,0,-1.25,416.41071,232.62552)">
      <path
         inkscape:connector-curvature="0"
         d="m 0,0 -6.24,-3 0,-67.74 26.7,0"
         style="fill:none;stroke:#000000;stroke-width:0.75;stroke-linecap:square;stroke-linejoin:bevel;stroke-miterlimit:10;stroke-opacity:1;stroke-dasharray:none"
         id="path3224" />
    </g>
    <g
       id="g3226"
       transform="matrix(1.25,0,0,-1.25,416.41071,223.85052)">
      <path
         inkscape:connector-curvature="0"
         d="M 0,0 0,0"
         style="fill:none;stroke:#000000;stroke-width:0.75;stroke-linecap:square;stroke-linejoin:bevel;stroke-miterlimit:10;stroke-opacity:1;stroke-dasharray:none"
         id="path3228" />
    </g>
    <g
       id="g3230"
       transform="matrix(1.25,0,0,-1.25,409.51071,222.87552)">
      <path
         inkscape:connector-curvature="0"
         d="M 0,0 3.78,-0.54 1.02,2.22 0,0"
         style="fill:#000000;fill-opacity:1;fill-rule:evenodd;stroke:none"
         id="path3232" />
    </g>
    <g
       id="g3234"
       transform="matrix(1.25,0,0,-1.25,433.58571,228.20052)">
      <path
         inkscape:connector-curvature="0"
         d="m 0,0 0,56.22 -20.52,0"
         style="fill:none;stroke:#000000;stroke-width:0.75;stroke-linecap:butt;stroke-linejoin:miter;stroke-miterlimit:14;stroke-opacity:1;stroke-dasharray:none"
         id="path3236" />
    </g>
    <g
       id="g3238"
       transform="matrix(1.25,0,0,-1.25,477.01071,90.42552)">
      <path
         inkscape:connector-curvature="0"
         d="M 0,0 0,-103.98"
         style="fill:none;stroke:#000000;stroke-width:0.75;stroke-linecap:square;stroke-linejoin:bevel;stroke-miterlimit:14;stroke-opacity:1;stroke-dasharray:none"
         id="path3240" />
    </g>
    <g
       id="g3242"
       transform="matrix(1.25,0,0,-1.25,468.91071,224.45052)">
      <path
         inkscape:connector-curvature="0"
         d="M 0,0 6.24,3"
         style="fill:none;stroke:#000000;stroke-width:0.75;stroke-linecap:square;stroke-linejoin:bevel;stroke-miterlimit:14;stroke-opacity:1;stroke-dasharray:none"
         id="path3244" />
    </g>
    <g
       id="g3246"
       transform="matrix(1.25,0,0,-1.25,468.61071,220.40052)">
      <path
         inkscape:connector-curvature="0"
         d="M 0,0 0,-12.48"
         style="fill:none;stroke:#000000;stroke-width:0.75;stroke-linecap:square;stroke-linejoin:bevel;stroke-miterlimit:14;stroke-opacity:1;stroke-dasharray:none"
         id="path3248" />
    </g>
    <g
       id="g3250"
       transform="matrix(1.25,0,0,-1.25,451.73571,228.20052)">
      <path
         inkscape:connector-curvature="0"
         d="M 0,0 13.5,0"
         style="fill:none;stroke:#000000;stroke-width:0.75;stroke-linecap:square;stroke-linejoin:bevel;stroke-miterlimit:14;stroke-opacity:1;stroke-dasharray:none"
         id="path3252" />
    </g>
    <g
       id="g3254"
       transform="matrix(1.25,0,0,-1.25,468.91071,232.62552)">
      <path
         inkscape:connector-curvature="0"
         d="M 0,0 6.24,-2.7"
         style="fill:none;stroke:#000000;stroke-width:0.75;stroke-linecap:square;stroke-linejoin:bevel;stroke-miterlimit:14;stroke-opacity:1;stroke-dasharray:none"
         id="path3256" />
    </g>
    <g
       id="g3258"
       transform="matrix(1.25,0,0,-1.25,477.01071,236.37552)">
      <path
         inkscape:connector-curvature="0"
         d="m 0,0 0,-67.74 -27,0"
         style="fill:none;stroke:#000000;stroke-width:0.75;stroke-linecap:square;stroke-linejoin:bevel;stroke-miterlimit:14;stroke-opacity:1;stroke-dasharray:none"
         id="path3260" />
    </g>
    <g
       id="g3262"
       transform="matrix(1.25,0,0,-1.25,468.91071,223.85052)">
      <path
         inkscape:connector-curvature="0"
         d="M 0,0 0,0"
         style="fill:none;stroke:#000000;stroke-width:0.75;stroke-linecap:square;stroke-linejoin:bevel;stroke-miterlimit:14;stroke-opacity:1;stroke-dasharray:none"
         id="path3264" />
    </g>
    <g
       id="g3266"
       transform="matrix(1.25,0,0,-1.25,475.73571,222.87552)">
      <path
         inkscape:connector-curvature="0"
         d="M 0,0 -3.72,-0.3 -0.96,2.22 0,0"
         style="fill:#000000;fill-opacity:1;fill-rule:evenodd;stroke:none"
         id="path3268" />
    </g>
    <g
       id="g3270"
       transform="matrix(1.25,0,0,-1.25,451.73571,228.20052)">
      <path
         inkscape:connector-curvature="0"
         d="m 0,0 0,56.22 20.46,0"
         style="fill:none;stroke:#000000;stroke-width:0.75;stroke-linecap:butt;stroke-linejoin:miter;stroke-miterlimit:14;stroke-opacity:1;stroke-dasharray:none"
         id="path3272" />
    </g>
    <g
       id="g3274"
       transform="matrix(1.25,0,0,-1.25,441.98571,360.35052)">
      <path
         inkscape:connector-curvature="0"
         d="M 0,0 0,31.44 0,0"
         style="fill:#ffffff;fill-opacity:1;fill-rule:nonzero;stroke:none"
         id="path3276" />
    </g>
    <g
       id="g3278"
       transform="matrix(1.25,0,0,-1.25,441.98571,360.35052)">
      <path
         inkscape:connector-curvature="0"
         d="M 0,0 0,31.44"
         style="fill:none;stroke:#000000;stroke-width:0.75;stroke-linecap:square;stroke-linejoin:bevel;stroke-miterlimit:14;stroke-opacity:1;stroke-dasharray:none"
         id="path3280" />
    </g>
    <g
       id="g3282"
       transform="matrix(1.25,0,0,-1.25,437.63571,360.35052)">
      <path
         inkscape:connector-curvature="0"
         d="M 0,0 7.02,0 3.48,-5.52 0,0 z"
         style="fill:#ffffff;fill-opacity:1;fill-rule:evenodd;stroke:#000000;stroke-width:0.75;stroke-linecap:butt;stroke-linejoin:miter;stroke-miterlimit:4;stroke-opacity:1;stroke-dasharray:none"
         id="path3284" />
    </g>
    <g
       id="g3286"
       transform="matrix(1.25,0,0,-1.25,437.63571,360.35052)">
      <path
         inkscape:connector-curvature="0"
         d="M 0,0 7.02,0 3.48,-5.52 0,0 z"
         style="fill:#ffffff;fill-opacity:1;fill-rule:nonzero;stroke:#000000;stroke-width:0.75;stroke-linecap:butt;stroke-linejoin:miter;stroke-miterlimit:14;stroke-opacity:1;stroke-dasharray:none"
         id="path3288" />
    </g>
    <g
       id="g3290"
       transform="matrix(1.25,0,0,-1.25,459.23571,171.05052)">
      <path
         inkscape:connector-curvature="0"
         d="M 0,0 -26.52,0 -13.02,-23.46 0,0 z"
         style="fill:#ffffff;fill-opacity:1;fill-rule:nonzero;stroke:#000000;stroke-width:0.75;stroke-linecap:butt;stroke-linejoin:miter;stroke-miterlimit:14;stroke-opacity:1;stroke-dasharray:none"
         id="path3292" />
    </g>
    <g
       id="g3294"
       transform="matrix(1.25,0,0,-1.25,433.58571,173.22552)">
      <path
         inkscape:connector-curvature="0"
         d="M 0,0 0,-3 0,0"
         style="fill:#ffffff;fill-opacity:1;fill-rule:nonzero;stroke:none"
         id="path3296" />
    </g>
    <g
       id="g3298"
       transform="matrix(1.25,0,0,-1.25,433.58571,173.22552)">
      <path
         inkscape:connector-curvature="0"
         d="M 0,0 0,-3"
         style="fill:none;stroke:#000000;stroke-width:0.75;stroke-linecap:butt;stroke-linejoin:miter;stroke-miterlimit:14;stroke-opacity:1;stroke-dasharray:none"
         id="path3300" />
    </g>
    <g
       id="g3302"
       transform="matrix(1.25,0,0,-1.25,435.76071,175.10052)">
      <path
         inkscape:connector-curvature="0"
         d="M 0,0 -3.24,0 0,0"
         style="fill:#ffffff;fill-opacity:1;fill-rule:nonzero;stroke:none"
         id="path3304" />
    </g>
    <g
       id="g3306"
       transform="matrix(1.25,0,0,-1.25,435.76071,175.10052)">
      <path
         inkscape:connector-curvature="0"
         d="M 0,0 -3.24,0"
         style="fill:none;stroke:#000000;stroke-width:0.75;stroke-linecap:butt;stroke-linejoin:miter;stroke-miterlimit:14;stroke-opacity:1;stroke-dasharray:none"
         id="path3308" />
    </g>
    <g
       id="g3310"
       transform="matrix(1.25,0,0,-1.25,453.61071,175.10052)">
      <path
         inkscape:connector-curvature="0"
         d="M 0,0 -3,0 0,0"
         style="fill:#ffffff;fill-opacity:1;fill-rule:nonzero;stroke:none"
         id="path3312" />
    </g>
    <g
       id="g3314"
       transform="matrix(1.25,0,0,-1.25,453.61071,175.10052)">
      <path
         inkscape:connector-curvature="0"
         d="M 0,0 -3,0"
         style="fill:none;stroke:#000000;stroke-width:0.75;stroke-linecap:butt;stroke-linejoin:miter;stroke-miterlimit:14;stroke-opacity:1;stroke-dasharray:none"
         id="path3316" />
    </g>
    <g
       id="g3318"
       transform="matrix(1.25,0,0,-1.25,408.31071,270.05052)">
      <path
         inkscape:connector-curvature="0"
         d="M 0,0 66.96,0"
         style="fill:none;stroke:#000000;stroke-width:0.75;stroke-linecap:butt;stroke-linejoin:miter;stroke-miterlimit:14;stroke-opacity:1;stroke-dasharray:none"
         id="path3320" />
    </g>
    <g
       id="g3322"
       transform="matrix(1.25,0,0,-1.25,476.71071,252.27552)">
      <path
         inkscape:connector-curvature="0"
         d="M 0,0 12.24,0"
         style="fill:none;stroke:#000000;stroke-width:0.75;stroke-linecap:butt;stroke-linejoin:miter;stroke-miterlimit:14;stroke-opacity:1;stroke-dasharray:none"
         id="path3324" />
    </g>
    <g
       id="g3326"
       transform="matrix(1.25,0,0,-1.25,521.03571,261.05052)">
      <path
         inkscape:connector-curvature="0"
         d="M 0,0 43.26,0"
         style="fill:none;stroke:#000000;stroke-width:0.75;stroke-linecap:butt;stroke-linejoin:miter;stroke-miterlimit:14;stroke-opacity:1;stroke-dasharray:none"
         id="path3328" />
    </g>
    <g
       id="g3330"
       transform="matrix(1.25,0,0,-1.25,573.53571,263.22552)">
      <path
         inkscape:connector-curvature="0"
         d="M 0,0 6.48,1.74 0,3.48 0,0"
         style="fill:#000000;fill-opacity:1;fill-rule:nonzero;stroke:none"
         id="path3332" />
    </g>
    <path
       inkscape:connector-curvature="0"
       d="m 548.26071,340.10052 -159.675,0 0,-228.45 159.675,0 0,228.45 z"
       style="fill:none;stroke:#000000;stroke-width:1.24874997;stroke-linecap:butt;stroke-linejoin:miter;stroke-miterlimit:14;stroke-opacity:1;stroke-dasharray:none"
       id="path3334" />
    <g
       id="g3336"
       transform="matrix(1.25,0,0,-1.25,441.98571,354.42552)">
      <path
         inkscape:connector-curvature="0"
         d="m 0,0 96.48,0 0,47.7 -38.7,0 0,52.26 38.7,0 0,94.28853"
         style="fill:none;stroke:#000000;stroke-width:0.75;stroke-linecap:butt;stroke-linejoin:miter;stroke-miterlimit:14;stroke-opacity:1;stroke-dasharray:none"
         id="path3338"
         sodipodi:nodetypes="ccccccc" />
    </g>
    <g
       id="g3340"
       transform="matrix(1.25,0,0,-1.25,489.16071,239.75052)">
      <path
         inkscape:connector-curvature="0"
         d="M 0,0 0,-34.26 30.24,-17.04 0,0 z"
         style="fill:#ffffff;fill-opacity:1;fill-rule:nonzero;stroke:#000000;stroke-width:0.75;stroke-linecap:butt;stroke-linejoin:miter;stroke-miterlimit:14;stroke-opacity:1;stroke-dasharray:none"
         id="path3342" />
    </g>
    <g
       id="g3344"
       transform="matrix(1.25,0,0,-1.25,491.41071,270.05052)">
      <path
         inkscape:connector-curvature="0"
         d="M 0,0 3.24,0 0,0"
         style="fill:#ffffff;fill-opacity:1;fill-rule:nonzero;stroke:none"
         id="path3346" />
    </g>
    <g
       id="g3348"
       transform="matrix(1.25,0,0,-1.25,491.41071,270.05052)">
      <path
         inkscape:connector-curvature="0"
         d="M 0,0 3.24,0"
         style="fill:none;stroke:#000000;stroke-width:0.75;stroke-linecap:butt;stroke-linejoin:miter;stroke-miterlimit:14;stroke-opacity:1;stroke-dasharray:none"
         id="path3350" />
    </g>
    <g
       id="g3352"
       transform="matrix(1.25,0,0,-1.25,493.28571,268.17552)">
      <path
         inkscape:connector-curvature="0"
         d="M 0,0 0,-3.3 0,0"
         style="fill:#ffffff;fill-opacity:1;fill-rule:nonzero;stroke:none"
         id="path3354" />
    </g>
    <g
       id="g3356"
       transform="matrix(1.25,0,0,-1.25,493.28571,268.17552)">
      <path
         inkscape:connector-curvature="0"
         d="M 0,0 0,-3.3"
         style="fill:none;stroke:#000000;stroke-width:0.75;stroke-linecap:butt;stroke-linejoin:miter;stroke-miterlimit:14;stroke-opacity:1;stroke-dasharray:none"
         id="path3358" />
    </g>
    <g
       id="g3360"
       transform="matrix(1.25,0,0,-1.25,495.46071,252.27552)">
      <path
         inkscape:connector-curvature="0"
         d="M 0,0 -3,0 0,0"
         style="fill:#ffffff;fill-opacity:1;fill-rule:nonzero;stroke:none"
         id="path3362" />
    </g>
    <g
       id="g3364"
       transform="matrix(1.25,0,0,-1.25,495.46071,252.27552)">
      <path
         inkscape:connector-curvature="0"
         d="M 0,0 -3,0"
         style="fill:none;stroke:#000000;stroke-width:0.75;stroke-linecap:butt;stroke-linejoin:miter;stroke-miterlimit:14;stroke-opacity:1;stroke-dasharray:none"
         id="path3366" />
    </g>
    <g
       id="g3368"
       transform="matrix(1.25,0,0,-1.25,614.78571,196.02552)">
      <path
         inkscape:connector-curvature="0"
         d="m 0,0 -31.5,0 0,17.22 31.5,0 L 0,0 z"
         style="fill:none;stroke:#000000;stroke-width:0.75;stroke-linecap:butt;stroke-linejoin:miter;stroke-miterlimit:14;stroke-opacity:1;stroke-dasharray:none"
         id="path3370" />
    </g>
    <text
       transform="scale(0.999925,1.000075)"
       id="text3372"
       x="584.52954"
       y="188.06142"
       style="font-size:14.99887466px">
      <tspan
         style="font-size:7.49818754px;font-variant:normal;font-weight:bold;font-stretch:normal;writing-mode:lr-tb;fill:#000000;fill-opacity:1;fill-rule:nonzero;stroke:none;font-family:Arial;-inkscape-font-specification:Arial-BoldMT"
         x="584.52954 589.25568 595.18146 600.43243"
         y="188.06142"
         sodipodi:role="line"
         id="tspan3374">LOAD</tspan>
    </text>
    <g
       id="g3376"
       transform="matrix(1.25,0,0,-1.25,356.71071,73.55052)">
      <path
         inkscape:connector-curvature="0"
         d="m 0,0 0,-13.26 190.74,0 0,-67.5"
         style="fill:none;stroke:#000000;stroke-width:0.75;stroke-linecap:butt;stroke-linejoin:miter;stroke-miterlimit:14;stroke-opacity:1;stroke-dasharray:none"
         id="path3378" />
    </g>
    <g
       id="g3380"
       transform="matrix(1.25,0,0,-1.25,595.13571,215.37552)">
      <path
         inkscape:connector-curvature="0"
         d="M 0,0 0,15.48 0,0"
         style="fill:#ffffff;fill-opacity:1;fill-rule:nonzero;stroke:none"
         id="path3382" />
    </g>
    <g
       id="g3384"
       transform="matrix(1.25,0,0,-1.25,595.13571,215.37552)">
      <path
         inkscape:connector-curvature="0"
         d="M 0,0 0,15.48"
         style="fill:none;stroke:#000000;stroke-width:0.75;stroke-linecap:square;stroke-linejoin:bevel;stroke-miterlimit:14;stroke-opacity:1;stroke-dasharray:none"
         id="path3386" />
    </g>
    <g
       id="g3388"
       transform="matrix(1.25,0,0,-1.25,590.71071,212.60052)">
      <path
         inkscape:connector-curvature="0"
         d="M 0,0 7.02,0 3.54,-5.52 0,0 z"
         style="fill:#ffffff;fill-opacity:1;fill-rule:nonzero;stroke:#000000;stroke-width:0.75;stroke-linecap:butt;stroke-linejoin:miter;stroke-miterlimit:14;stroke-opacity:1;stroke-dasharray:none"
         id="path3390" />
    </g>
    <g
       id="g3392"
       transform="matrix(1.25,0,0,-1.25,562.28571,148.25052)">
      <path
         inkscape:connector-curvature="0"
         d="M 0,0 -11.22,0"
         style="fill:none;stroke:#000000;stroke-width:0.75;stroke-linecap:butt;stroke-linejoin:miter;stroke-miterlimit:14;stroke-opacity:1;stroke-dasharray:none"
         id="path3394" />
    </g>
    <g
       id="g3396"
       transform="matrix(1.25,0,0,-1.25,409.21071,129.20052)">
      <path
         inkscape:connector-curvature="0"
         d="m 0,0 0,-8.7 -1.26,0.24 0,9 L 0,0"
         style="fill:#ffffff;fill-opacity:1;fill-rule:nonzero;stroke:none"
         id="path3398" />
    </g>
    <g
       id="g3400"
       transform="matrix(1.25,0,0,-1.25,408.61071,143.82552)">
      <path
         inkscape:connector-curvature="0"
         d="m 0,0 0,2.7 -1.26,0.78 2.52,1.5 -2.52,1.5 2.52,1.26 -2.52,1.5 2.52,1.5 -1.26,0.72 0,2.76"
         style="fill:none;stroke:#000000;stroke-width:0.75;stroke-linecap:butt;stroke-linejoin:miter;stroke-miterlimit:14;stroke-opacity:1;stroke-dasharray:none"
         id="path3402" />
    </g>
    <g
       id="g3404"
       transform="matrix(1.25,0,0,-1.25,477.61071,129.20052)">
      <path
         inkscape:connector-curvature="0"
         d="m 0,0 0,-8.7 -1.26,0.48 0,8.76 L 0,0"
         style="fill:#ffffff;fill-opacity:1;fill-rule:nonzero;stroke:none"
         id="path3406" />
    </g>
    <g
       id="g3408"
       transform="matrix(1.25,0,0,-1.25,477.01071,143.82552)">
      <path
         inkscape:connector-curvature="0"
         d="m 0,0 0,2.7 -1.26,0.78 2.52,1.5 -2.52,1.5 2.52,1.5 -2.52,1.26 2.52,1.5 -1.26,0.72 0,2.76"
         style="fill:none;stroke:#000000;stroke-width:0.75;stroke-linecap:butt;stroke-linejoin:miter;stroke-miterlimit:14;stroke-opacity:1;stroke-dasharray:none"
         id="path3410" />
    </g>
    <g
       id="g3412"
       transform="matrix(1.25,0,0,-1.25,477.61071,290.37552)">
      <path
         inkscape:connector-curvature="0"
         d="m 0,0 0,-9 -1.26,0.48 0,9 L 0,0"
         style="fill:#ffffff;fill-opacity:1;fill-rule:nonzero;stroke:none"
         id="path3414" />
    </g>
    <g
       id="g3416"
       transform="matrix(1.25,0,0,-1.25,477.01071,305.07552)">
      <path
         inkscape:connector-curvature="0"
         d="m 0,0 0,2.76 -1.26,0.72 2.52,1.26 -2.52,1.5 2.52,1.5 -2.52,1.5 2.52,1.5 -1.26,0.78 0,2.46"
         style="fill:none;stroke:#000000;stroke-width:0.75;stroke-linecap:butt;stroke-linejoin:miter;stroke-miterlimit:14;stroke-opacity:1;stroke-dasharray:none"
         id="path3418" />
    </g>
    <g
       id="g3420"
       transform="matrix(1.25,0,0,-1.25,409.21071,290.37552)">
      <path
         inkscape:connector-curvature="0"
         d="m 0,0 0,-9 -1.26,0.48 0,9 L 0,0"
         style="fill:#ffffff;fill-opacity:1;fill-rule:nonzero;stroke:none"
         id="path3422" />
    </g>
    <g
       id="g3424"
       transform="matrix(1.25,0,0,-1.25,408.61071,305.07552)">
      <path
         inkscape:connector-curvature="0"
         d="m 0,0 0,2.76 -1.26,0.48 2.52,1.5 -2.52,1.5 2.52,1.5 -2.52,1.5 2.52,1.26 -1.26,1.02 0,2.46"
         style="fill:none;stroke:#000000;stroke-width:0.75;stroke-linecap:butt;stroke-linejoin:miter;stroke-miterlimit:14;stroke-opacity:1;stroke-dasharray:none"
         id="path3426" />
    </g>
    <g
       id="g3428"
       transform="matrix(1.25,0,0,-1.25,412.36071,112.32552)">
      <path
         inkscape:connector-curvature="0"
         d="m 0,0 c 0,-1.5 -1.5,-3 -3.24,-3 -1.5,0 -3,1.5 -3,3 0,1.8 1.5,3.3 3,3.3 C -1.5,3.3 0,1.8 0,0 z"
         style="fill:#ffffff;fill-opacity:1;fill-rule:evenodd;stroke:#000000;stroke-width:0.75;stroke-linecap:butt;stroke-linejoin:miter;stroke-miterlimit:4;stroke-opacity:1;stroke-dasharray:none"
         id="path3430" />
    </g>
    <g
       id="g3432"
       transform="matrix(1.25,0,0,-1.25,480.76071,111.95052)">
      <path
         inkscape:connector-curvature="0"
         d="m 0,0 c 0,-1.5 -1.5,-3 -3,-3 -1.74,0 -3.24,1.5 -3.24,3 0,1.74 1.5,3.24 3.24,3.24 1.5,0 3,-1.5 3,-3.24 z"
         style="fill:#ffffff;fill-opacity:1;fill-rule:evenodd;stroke:#000000;stroke-width:0.75;stroke-linecap:butt;stroke-linejoin:miter;stroke-miterlimit:4;stroke-opacity:1;stroke-dasharray:none"
         id="path3434" />
    </g>
    <g
       id="g3436"
       transform="matrix(1.25,0,0,-1.25,552.01071,148.25052)">
      <path
         inkscape:connector-curvature="0"
         d="m 0,0 c 0,-1.74 -1.26,-3.24 -3,-3.24 -1.5,0 -3,1.5 -3,3.24 0,1.5 1.5,3 3,3 1.74,0 3,-1.5 3,-3 z"
         style="fill:#ffffff;fill-opacity:1;fill-rule:evenodd;stroke:#000000;stroke-width:0.75;stroke-linecap:butt;stroke-linejoin:miter;stroke-miterlimit:4;stroke-opacity:1;stroke-dasharray:none"
         id="path3438" />
    </g>
    <g
       id="g3440"
       transform="matrix(1.25,0,0,-1.25,552.01071,229.17552)">
      <path
         inkscape:connector-curvature="0"
         d="m 0,0 c 0,-1.74 -1.26,-3.24 -3,-3.24 -1.74,0 -3,1.5 -3,3.24 0,1.5 1.26,3 3,3 1.74,0 3,-1.5 3,-3 z"
         style="fill:#ffffff;fill-opacity:1;fill-rule:evenodd;stroke:#000000;stroke-width:0.75;stroke-linecap:butt;stroke-linejoin:miter;stroke-miterlimit:4;stroke-opacity:1;stroke-dasharray:none"
         id="path3442" />
    </g>
    <g
       id="g3444"
       transform="matrix(1.25,0,0,-1.25,552.31071,261.05052)">
      <path
         inkscape:connector-curvature="0"
         d="m 0,0 c 0,-1.74 -1.5,-3 -3,-3 -1.74,0 -3.24,1.26 -3.24,3 0,1.74 1.5,3 3.24,3 1.5,0 3,-1.26 3,-3 z"
         style="fill:#ffffff;fill-opacity:1;fill-rule:evenodd;stroke:#000000;stroke-width:0.75;stroke-linecap:butt;stroke-linejoin:miter;stroke-miterlimit:4;stroke-opacity:1;stroke-dasharray:none"
         id="path3446" />
    </g>
    <g
       id="g3448"
       transform="matrix(1.25,0,0,-1.25,552.31071,294.80052)">
      <path
         inkscape:connector-curvature="0"
         d="m 0,0 c 0,-1.74 -1.5,-3 -3.24,-3 -1.5,0 -3,1.26 -3,3 0,1.5 1.5,3 3,3 C -1.5,3 0,1.5 0,0 z"
         style="fill:#ffffff;fill-opacity:1;fill-rule:evenodd;stroke:#000000;stroke-width:0.75;stroke-linecap:butt;stroke-linejoin:miter;stroke-miterlimit:4;stroke-opacity:1;stroke-dasharray:none"
         id="path3450" />
    </g>
    <g
       id="g3452"
       transform="matrix(1.25,0,0,-1.25,445.73571,340.40052)">
      <path
         inkscape:connector-curvature="0"
         d="m 0,0 c 0,-1.74 -1.5,-3 -3,-3 -1.74,0 -3.24,1.26 -3.24,3 0,1.74 1.5,3 3.24,3 1.5,0 3,-1.26 3,-3 z"
         style="fill:#ffffff;fill-opacity:1;fill-rule:evenodd;stroke:#000000;stroke-width:0.75;stroke-linecap:butt;stroke-linejoin:miter;stroke-miterlimit:4;stroke-opacity:1;stroke-dasharray:none"
         id="path3454" />
    </g>
    <g
       id="g3456"
       transform="matrix(1.25,0,0,-1.25,443.86071,321.05052)">
      <path
         inkscape:connector-curvature="0"
         d="M 0,0 C 0,0.78 -0.72,1.5 -1.5,1.5 -2.22,1.5 -3,0.78 -3,0 c 0,-0.72 0.78,-1.5 1.5,-1.5 0.78,0 1.5,0.78 1.5,1.5 z"
         style="fill:#000000;fill-opacity:1;fill-rule:nonzero;stroke:#000000;stroke-width:0.5;stroke-linecap:butt;stroke-linejoin:miter;stroke-miterlimit:14;stroke-opacity:1;stroke-dasharray:none"
         id="path3458" />
    </g>
    <g
       id="g3460"
       transform="matrix(1.25,0,0,-1.25,564.46071,148.25052)">
      <path
         inkscape:connector-curvature="0"
         d="m 0,0 c 0,0.78 -0.48,1.26 -1.2,1.26 -0.78,0 -1.5,-0.48 -1.5,-1.26 0,-0.72 0.72,-1.5 1.5,-1.5 0.72,0 1.2,0.78 1.2,1.5 z"
         style="fill:#000000;fill-opacity:1;fill-rule:nonzero;stroke:#000000;stroke-width:0.5;stroke-linecap:butt;stroke-linejoin:miter;stroke-miterlimit:14;stroke-opacity:1;stroke-dasharray:none"
         id="path3462" />
    </g>
    <g
       id="g3464"
       transform="matrix(1.25,0,0,-1.25,447.01071,91.02552)">
      <path
         inkscape:connector-curvature="0"
         d="m 0,0 -8.76,0 0.54,1.26 8.7,0 L 0,0"
         style="fill:#ffffff;fill-opacity:1;fill-rule:nonzero;stroke:none"
         id="path3466" />
    </g>
    <g
       id="g3468"
       transform="matrix(1.25,0,0,-1.25,432.31071,90.12552)">
      <path
         inkscape:connector-curvature="0"
         d="m 0,0 3,0 0.54,1.02 1.5,-2.52 1.5,2.52 1.5,-2.52 1.2,2.52 1.5,-2.52 0.78,1.5 2.76,0"
         style="fill:none;stroke:#000000;stroke-width:0.75;stroke-linecap:butt;stroke-linejoin:miter;stroke-miterlimit:14;stroke-opacity:1;stroke-dasharray:none"
         id="path3470" />
    </g>
    <text
       transform="scale(0.999925,1.000075)"
       id="text3472"
       x="490.77252"
       y="178.61212"
       style="font-size:14.99887466px">
      <tspan
         style="font-size:9.99775028px;font-variant:normal;font-weight:bold;font-stretch:normal;writing-mode:lr-tb;fill:#000000;fill-opacity:1;fill-rule:nonzero;stroke:none;font-family:Arial;-inkscape-font-specification:Arial-BoldMT"
         x="490.77252 497.97589 505.17929 510.80301 516.34674 521.97052"
         y="178.61212"
         sodipodi:role="line"
         id="tspan3474">AD8210</tspan>
    </text>
    <text
       transform="scale(0.999925,1.000075)"
       id="text3476"
       x="584.37939"
       y="264.10571"
       style="font-size:14.99887466px">
      <tspan
         style="font-size:7.49818754px;font-variant:normal;font-weight:bold;font-stretch:normal;writing-mode:lr-tb;fill:#000000;fill-opacity:1;fill-rule:nonzero;stroke:none;font-family:Arial;-inkscape-font-specification:Arial-BoldMT"
         x="584.37939 589.32971 595.25482 600.58002"
         y="264.10571"
         sodipodi:role="line"
         id="tspan3478">VOUT</tspan>
      <tspan
         style="font-size:7.49818754px;font-variant:normal;font-weight:bold;font-stretch:normal;writing-mode:lr-tb;fill:#000000;fill-opacity:1;fill-rule:nonzero;stroke:none;font-family:Arial;-inkscape-font-specification:Arial-BoldMT"
         x="490.922 499.0238 505.55096 509.97867 514.02393"
         y="263.7308"
         sodipodi:role="line"
         id="tspan3480">G=+20</tspan>
    </text>
    <g
       id="g3482"
       transform="matrix(1.25,0,0,-1.25,410.48571,90.42552)">
      <path
         inkscape:connector-curvature="0"
         d="M 0,0 C 0,0.78 -0.78,1.5 -1.5,1.5 -2.28,1.5 -3,0.78 -3,0 c 0,-0.72 0.72,-1.26 1.5,-1.26 0.72,0 1.5,0.54 1.5,1.26 z"
         style="fill:#000000;fill-opacity:1;fill-rule:nonzero;stroke:#000000;stroke-width:0.5;stroke-linecap:butt;stroke-linejoin:miter;stroke-miterlimit:14;stroke-opacity:1;stroke-dasharray:none"
         id="path3484" />
    </g>
    <g
       id="g3486"
       transform="matrix(1.25,0,0,-1.25,478.58571,90.12552)">
      <path
         inkscape:connector-curvature="0"
         d="m 0,0 c 0,0.78 -0.54,1.5 -1.5,1.5 -0.78,0 -1.26,-0.72 -1.26,-1.5 0,-0.72 0.48,-1.5 1.26,-1.5 0.96,0 1.5,0.78 1.5,1.5 z"
         style="fill:#000000;fill-opacity:1;fill-rule:nonzero;stroke:#000000;stroke-width:0.5;stroke-linecap:butt;stroke-linejoin:miter;stroke-miterlimit:14;stroke-opacity:1;stroke-dasharray:none"
         id="path3488" />
    </g>
    <g
       id="g3490"
       transform="matrix(1.25,0,0,-1.25,565.38825,110.24493)">
      <path
         inkscape:connector-curvature="0"
         d="M 0,0 C 0,-1.02 -1.02,-1.8 -2.04,-1.8 -3,-1.8 -3.78,-1.02 -3.78,0 -3.78,0.96 -3,1.74 -2.04,1.74 -1.02,1.74 0,0.96 0,0 z"
         style="fill:#ffffff;fill-opacity:1;fill-rule:nonzero;stroke:#000000;stroke-width:0.75;stroke-linecap:butt;stroke-linejoin:miter;stroke-miterlimit:14;stroke-opacity:1;stroke-dasharray:none"
         id="path3492" />
    </g>
    <g
       id="g3494"
       transform="matrix(1.25,0,0,-1.25,358.88571,71.67552)">
      <path
         inkscape:connector-curvature="0"
         d="m 0,0 c 0,-1.02 -0.72,-1.98 -1.74,-1.98 -0.96,0 -1.74,0.96 -1.74,1.98 0,1.02 0.78,1.74 1.74,1.74 C -0.72,1.74 0,1.02 0,0 z"
         style="fill:#ffffff;fill-opacity:1;fill-rule:nonzero;stroke:#000000;stroke-width:0.75;stroke-linecap:butt;stroke-linejoin:miter;stroke-miterlimit:14;stroke-opacity:1;stroke-dasharray:none"
         id="path3496" />
    </g>
    <g
       id="g3498"
       transform="matrix(1.25,0,0,-1.25,487.66071,65.45052)">
      <path
         inkscape:connector-curvature="0"
         d="M 0,0 8.46,2.28 0,4.5 0,0"
         style="fill:#ffffff;fill-opacity:1;fill-rule:nonzero;stroke:none"
         id="path3500" />
    </g>
    <g
       id="g3502"
       transform="matrix(1.25,0,0,-1.25,391.73571,62.60052)">
      <path
         inkscape:connector-curvature="0"
         d="M 0,0 78.24,0"
         style="fill:none;stroke:#000000;stroke-width:0.75;stroke-linecap:butt;stroke-linejoin:miter;stroke-miterlimit:14;stroke-opacity:1;stroke-dasharray:none"
         id="path3504" />
    </g>
    <g
       id="g3506"
       transform="matrix(1.25,0,0,-1.25,487.96071,64.77552)">
      <path
         inkscape:connector-curvature="0"
         d="M 0,0 6.48,1.74 0,3.48 0,0"
         style="fill:#000000;fill-opacity:1;fill-rule:nonzero;stroke:none"
         id="path3508" />
    </g>
    <g
       id="g3510"
       transform="matrix(1.25,0,0,-1.25,399.83571,77.00052)">
      <path
         inkscape:connector-curvature="0"
         d="M 0,0 -8.76,-2.22 0,-4.5 0,0"
         style="fill:#ffffff;fill-opacity:1;fill-rule:nonzero;stroke:none"
         id="path3512" />
    </g>
    <g
       id="g3514"
       transform="matrix(1.25,0,0,-1.25,495.46071,79.77552)">
      <path
         inkscape:connector-curvature="0"
         d="M 0,0 -78,0"
         style="fill:none;stroke:#000000;stroke-width:0.75;stroke-linecap:butt;stroke-linejoin:miter;stroke-miterlimit:14;stroke-opacity:1;stroke-dasharray:none"
         id="path3516" />
    </g>
    <g
       id="g3518"
       transform="matrix(1.25,0,0,-1.25,399.23571,77.60052)">
      <path
         inkscape:connector-curvature="0"
         d="M 0,0 -6.54,-1.74 0,-3.54 0,0"
         style="fill:#000000;fill-opacity:1;fill-rule:nonzero;stroke:none"
         id="path3520" />
    </g>
    <g
       id="g3522"
       transform="matrix(1.25,0,0,-1.25,-89.464289,860.30052)">
      <g
         id="g3524"
         clip-path="url(#clipPath3526)">
        <text
           transform="matrix(0.99984997,0,0,-1,344.82,636.48)"
           id="text3530">
          <tspan
             style="font-size:5.99900007px;font-variant:normal;font-weight:bold;font-stretch:normal;writing-mode:lr-tb;fill:#000000;fill-opacity:1;fill-rule:nonzero;stroke:none;font-family:Arial;-inkscape-font-specification:Arial-BoldMT"
             x="0"
             y="0"
             id="tspan3532">V</tspan>
        </text>
      </g>
    </g>
    <text
       transform="scale(0.99993,1.00007)"
       id="text3534"
       x="346.60999"
       y="66.570862"
       style="font-size:14.99895px">
      <tspan
         style="font-size:6.24856234px;font-variant:normal;font-weight:bold;font-stretch:normal;writing-mode:lr-tb;fill:#000000;fill-opacity:1;fill-rule:nonzero;stroke:none;font-family:Arial;-inkscape-font-specification:Arial-BoldMT"
         x="346.60999 350.66779 355.06927 359.12711 363.62857 366.85532"
         y="66.570862"
         sodipodi:role="line"
         id="tspan3536">SUPPLY</tspan>
    </text>
    <text
       transform="scale(0.999925,1.000075)"
       id="text3538"
       x="436.0184"
       y="73.320023"
       style="font-size:14.99887466px">
      <tspan
         style="font-size:7.49818754px;font-variant:normal;font-weight:bold;font-stretch:normal;writing-mode:lr-tb;fill:#000000;fill-opacity:1;fill-rule:nonzero;stroke:none;font-family:Arial;-inkscape-font-specification:Arial-BoldMT"
         x="436.0184"
         y="73.320023"
         id="tspan3540">I</tspan>
    </text>
    <text
       transform="scale(0.99993,1.00007)"
       id="text3542"
       x="438.11639"
       y="75.195259"
       style="font-size:14.99895px">
      <tspan
         style="font-size:6.24856234px;font-variant:normal;font-weight:bold;font-stretch:normal;writing-mode:lr-tb;fill:#000000;fill-opacity:1;fill-rule:nonzero;stroke:none;font-family:Arial;-inkscape-font-specification:Arial-BoldMT"
         x="438.11639"
         y="75.195259"
         id="tspan3544">S</tspan>
    </text>
    <text
       transform="scale(0.999925,1.000075)"
       id="text3546"
       x="435.49338"
       y="102.41784"
       style="font-size:14.99887466px">
      <tspan
         style="font-size:7.49818754px;font-variant:normal;font-weight:bold;font-stretch:normal;writing-mode:lr-tb;fill:#000000;fill-opacity:1;fill-rule:nonzero;stroke:none;font-family:Arial;-inkscape-font-specification:Arial-BoldMT"
         x="435.49338"
         y="102.41784"
         id="tspan3548">R</tspan>
    </text>
    <text
       transform="scale(0.99993,1.00007)"
       id="text3550"
       x="440.89157"
       y="104.29322"
       style="font-size:14.99895px">
      <tspan
         style="font-size:6.24856234px;font-variant:normal;font-weight:bold;font-stretch:normal;writing-mode:lr-tb;fill:#000000;fill-opacity:1;fill-rule:nonzero;stroke:none;font-family:Arial;-inkscape-font-specification:Arial-BoldMT"
         x="440.89157"
         y="104.29322"
         id="tspan3552">S</tspan>
    </text>
    <text
       transform="scale(0.999925,1.000075)"
       id="text3554"
       x="415.09186"
       y="121.5414"
       style="font-size:14.99887466px">
      <tspan
         style="font-size:7.49818754px;font-variant:normal;font-weight:bold;font-stretch:normal;writing-mode:lr-tb;fill:#000000;fill-opacity:1;fill-rule:nonzero;stroke:none;font-family:Arial;-inkscape-font-specification:Arial-BoldMT"
         x="415.09186 419.51727 421.69324 457.01871 461.06924 463.24521"
         y="121.5414"
         sodipodi:role="line"
         id="tspan3556">+IN–IN</tspan>
      <tspan
         style="font-size:7.49818754px;font-variant:normal;font-weight:bold;font-stretch:normal;writing-mode:lr-tb;fill:#000000;fill-opacity:1;fill-rule:nonzero;stroke:none;font-family:Arial;-inkscape-font-specification:Arial-BoldMT"
         x="532.02606"
         y="150.41692"
         id="tspan3558">V</tspan>
    </text>
    <text
       transform="scale(0.99993,1.00007)"
       id="text3560"
       x="537.04816"
       y="152.28986"
       style="font-size:14.99895px">
      <tspan
         style="font-size:6.24856234px;font-variant:normal;font-weight:bold;font-stretch:normal;writing-mode:lr-tb;fill:#000000;fill-opacity:1;fill-rule:nonzero;stroke:none;font-family:Arial;-inkscape-font-specification:Arial-BoldMT"
         x="537.04816"
         y="152.28986"
         id="tspan3562">S</tspan>
    </text>
    <text
       transform="scale(0.999925,1.000075)"
       id="text3564"
       x="558.20258"
       y="124.61617"
       style="font-size:14.99887466px">
      <tspan
         style="font-size:7.49818754px;font-variant:normal;font-weight:bold;font-stretch:normal;writing-mode:lr-tb;fill:#000000;fill-opacity:1;fill-rule:nonzero;stroke:none;font-family:Arial;-inkscape-font-specification:Arial-BoldMT"
         x="506.45007"
         y="224.657"
         id="tspan3568">V</tspan>
    </text>
    <text
       transform="scale(0.99993,1.00007)"
       id="text3570"
       x="511.39651"
       y="226.53467"
       style="font-size:14.99895px">
      <tspan
         style="font-size:6.24856234px;font-variant:normal;font-weight:bold;font-stretch:normal;writing-mode:lr-tb;fill:#000000;fill-opacity:1;fill-rule:nonzero;stroke:none;font-family:Arial;-inkscape-font-specification:Arial-BoldMT"
         x="511.39651 515.80548 519.87079"
         y="226.53467"
         sodipodi:role="line"
         id="tspan3572">REF</tspan>
    </text>
    <text
       transform="scale(0.999925,1.000075)"
       id="text3574"
       x="523.92499"
       y="224.65868"
       style="font-size:14.99887466px">
      <tspan
         style="font-size:7.49818754px;font-variant:normal;font-weight:bold;font-stretch:normal;writing-mode:lr-tb;fill:#000000;fill-opacity:1;fill-rule:nonzero;stroke:none;font-family:Arial;-inkscape-font-specification:Arial-BoldMT"
         x="523.92499"
         y="224.65868"
         id="tspan3576">1</tspan>
      <tspan
         style="font-size:7.49818754px;font-variant:normal;font-weight:bold;font-stretch:normal;writing-mode:lr-tb;fill:#000000;fill-opacity:1;fill-rule:nonzero;stroke:none;font-family:Arial;-inkscape-font-specification:Arial-BoldMT"
         x="506.29675"
         y="304.37939"
         id="tspan3578">V</tspan>
    </text>
    <text
       transform="scale(0.99993,1.00007)"
       id="text3580"
       x="511.24649"
       y="306.25409"
       style="font-size:14.99895px">
      <tspan
         style="font-size:6.24856234px;font-variant:normal;font-weight:bold;font-stretch:normal;writing-mode:lr-tb;fill:#000000;fill-opacity:1;fill-rule:nonzero;stroke:none;font-family:Arial;-inkscape-font-specification:Arial-BoldMT"
         x="511.24649 515.59552 519.71954"
         y="306.25409"
         sodipodi:role="line"
         id="tspan3582">REF</tspan>
    </text>
    <text
       transform="scale(0.999925,1.000075)"
       id="text3584"
       x="523.77502"
       y="304.37769"
       style="font-size:14.99887466px">
      <tspan
         style="font-size:7.49818754px;font-variant:normal;font-weight:bold;font-stretch:normal;writing-mode:lr-tb;fill:#000000;fill-opacity:1;fill-rule:nonzero;stroke:none;font-family:Arial;-inkscape-font-specification:Arial-BoldMT"
         x="523.77502"
         y="304.37769"
         id="tspan3586">2</tspan>
      <tspan
         style="font-size:7.49818754px;font-variant:normal;font-weight:bold;font-stretch:normal;writing-mode:lr-tb;fill:#000000;fill-opacity:1;fill-rule:nonzero;stroke:none;font-family:Arial;-inkscape-font-specification:Arial-BoldMT"
         x="422.51947 428.44604 433.77277"
         y="335.50266"
         sodipodi:role="line"
         id="tspan3588">GND</tspan>
    </text>
    <g
       id="g3590"
       transform="matrix(1.25,0,0,-1.25,410.18571,270.05052)">
      <path
         inkscape:connector-curvature="0"
         d="m 0,0 c 0,0.72 -0.54,1.5 -1.26,1.5 -1.02,0 -1.5,-0.78 -1.5,-1.5 0,-0.78 0.48,-1.5 1.5,-1.5 C -0.54,-1.5 0,-0.78 0,0 z"
         style="fill:#000000;fill-opacity:1;fill-rule:nonzero;stroke:#000000;stroke-width:0.5;stroke-linecap:butt;stroke-linejoin:miter;stroke-miterlimit:14;stroke-opacity:1;stroke-dasharray:none"
         id="path3592" />
    </g>
    <g
       id="g3594"
       transform="matrix(1.25,0,0,-1.25,478.58571,251.97552)">
      <path
         inkscape:connector-curvature="0"
         d="m 0,0 c 0,0.78 -0.54,1.5 -1.26,1.5 -1.02,0 -1.5,-0.72 -1.5,-1.5 0,-0.72 0.48,-1.5 1.5,-1.5 C -0.54,-1.5 0,-0.72 0,0 z"
         style="fill:#000000;fill-opacity:1;fill-rule:nonzero;stroke:#000000;stroke-width:0.5;stroke-linecap:butt;stroke-linejoin:miter;stroke-miterlimit:14;stroke-opacity:1;stroke-dasharray:none"
         id="path3596" />
    </g>
    <g
       id="g3598"
       transform="matrix(1.25,0,0,-1.25,478.58571,157.92552)">
      <path
         inkscape:connector-curvature="0"
         d="M 0,0 C 0,0.78 -0.78,1.5 -1.5,1.5 -2.28,1.5 -3,0.78 -3,0 c 0,-0.72 0.72,-1.5 1.5,-1.5 0.72,0 1.5,0.78 1.5,1.5 z"
         style="fill:#000000;fill-opacity:1;fill-rule:nonzero;stroke:#000000;stroke-width:0.5;stroke-linecap:butt;stroke-linejoin:miter;stroke-miterlimit:14;stroke-opacity:1;stroke-dasharray:none"
         id="path3600" />
    </g>
    <g
       id="g3602"
       transform="matrix(1.25,0,0,-1.25,410.18571,157.92552)">
      <path
         inkscape:connector-curvature="0"
         d="m 0,0 c 0,0.78 -0.54,1.26 -1.5,1.26 -0.78,0 -1.26,-0.48 -1.26,-1.26 0,-1.02 0.48,-1.5 1.26,-1.5 0.96,0 1.5,0.48 1.5,1.5 z"
         style="fill:#000000;fill-opacity:1;fill-rule:nonzero;stroke:#000000;stroke-width:0.5;stroke-linecap:butt;stroke-linejoin:miter;stroke-miterlimit:14;stroke-opacity:1;stroke-dasharray:none"
         id="path3604" />
    </g>
    <g
       id="g3606"
       transform="matrix(1.25,0,0,-1.25,443.86071,354.42552)">
      <path
         inkscape:connector-curvature="0"
         d="M 0,0 C 0,0.72 -0.72,1.5 -1.5,1.5 -2.22,1.5 -3,0.72 -3,0 c 0,-0.78 0.78,-1.26 1.5,-1.26 0.78,0 1.5,0.48 1.5,1.26 z"
         style="fill:#000000;fill-opacity:1;fill-rule:nonzero;stroke:#000000;stroke-width:0.5;stroke-linecap:butt;stroke-linejoin:miter;stroke-miterlimit:14;stroke-opacity:1;stroke-dasharray:none"
         id="path3608" />
    </g>
    <text
       transform="matrix(0,-1.0000875,0.99991248,0,0,0)"
       id="text3610"
       x="-368.41827"
       y="613.71429"
       style="font-size:14.99868679px">
      <tspan
         style="font-size:4.9988122px;font-variant:normal;font-weight:normal;font-stretch:normal;writing-mode:lr-tb;fill:#000000;fill-opacity:1;fill-rule:nonzero;stroke:none;font-family:Arial;-inkscape-font-specification:ArialMT"
         x="-368.41827 -365.64444 -362.79559 -360.02176 -357.17294 -354.39911 -352.82498 -349.97617 -347.2023"
         y="613.71429"
         sodipodi:role="line"
         id="tspan3612">05147-001</tspan>
    </text>
    <text
       id="text3614"
       x="461.63132"
       y="380.74933"
       style="font-size:15px">
      <tspan
         style="font-size:9.97500038px;font-style:italic;font-variant:normal;font-weight:normal;font-stretch:normal;writing-mode:lr-tb;fill:#000000;fill-opacity:1;fill-rule:nonzero;stroke:none;font-family:Myriad Pro;-inkscape-font-specification:MyriadPro-It"
         x="461.63132 466.26471 468.54398 473.7659 479.00775 482.17484 486.68851 488.48901 493.39172 495.56128"
         y="380.74933"
         sodipodi:role="line"
         id="tspan3616">Figure 1.</tspan>
    </text>
    <g
       transform="matrix(1.25,0,0,-1.25,416.59642,147.98266)"
       id="g4425">
      <path
         id="path4427"
         style="fill:none;stroke:#000000;stroke-width:0.75;stroke-linecap:butt;stroke-linejoin:miter;stroke-miterlimit:14;stroke-opacity:1;stroke-dasharray:none"
         d="m 0,0 3,0 0.54,1.02 1.5,-2.52 1.5,2.52 1.5,-2.52 1.2,2.52 1.5,-2.52 0.78,1.5 2.76,0"
         inkscape:connector-curvature="0" />
    </g>
    <g
       id="g4429"
       transform="matrix(1.25,0,0,-1.25,449.45356,147.98266)">
      <path
         inkscape:connector-curvature="0"
         d="m 0,0 3,0 0.54,1.02 1.5,-2.52 1.5,2.52 1.5,-2.52 1.2,2.52 1.5,-2.52 0.78,1.5 2.76,0"
         style="fill:none;stroke:#000000;stroke-width:0.75;stroke-linecap:butt;stroke-linejoin:miter;stroke-miterlimit:14;stroke-opacity:1;stroke-dasharray:none"
         id="path4431" />
    </g>
    <path
       style="fill:none;stroke:#000000;stroke-width:1px;stroke-linecap:butt;stroke-linejoin:miter;stroke-opacity:1"
       d="m 449.53322,147.94916 -15.15229,0"
       id="path4437"
       inkscape:connector-curvature="0" />
    <path
       style="fill:none;stroke:#000000;stroke-width:1px;stroke-linecap:butt;stroke-linejoin:miter;stroke-opacity:1"
       d="m 416.94046,148.03845 -8.58629,0"
       id="path4439"
       inkscape:connector-curvature="0" />
    <path
       style="fill:none;stroke:#000000;stroke-width:1px;stroke-linecap:butt;stroke-linejoin:miter;stroke-opacity:1"
       d="m 467.19555,147.97892 10.10153,0"
       id="path4441"
       inkscape:connector-curvature="0" />
    <path
       inkscape:connector-curvature="0"
       d="m 445.33605,129.88067 0,7.36845 6.50385,-3.70358 -6.50385,-3.66487 z"
       style="fill:#ffffff;fill-opacity:1;fill-rule:nonzero;stroke:#000000;stroke-width:0.76099998;stroke-linecap:butt;stroke-linejoin:miter;stroke-miterlimit:14;stroke-opacity:1;stroke-dasharray:none"
       id="path4445" />
    <path
       style="fill:none;stroke:#000000;stroke-width:1px;stroke-linecap:butt;stroke-linejoin:miter;stroke-opacity:1"
       d="m 452.2958,129.84037 -0.25254,7.82868"
       id="path5216"
       inkscape:connector-curvature="0" />
    <path
       style="fill:none;stroke:#000000;stroke-width:1px;stroke-linecap:butt;stroke-linejoin:miter;stroke-opacity:1"
       d="m 451.53819,133.12337 8.83883,0 0,-9.34392 102.53048,0"
       id="path5231"
       inkscape:connector-curvature="0"
       sodipodi:nodetypes="cccc" />
    <path
       style="fill:none;stroke:#000000;stroke-width:1px;stroke-linecap:butt;stroke-linejoin:miter;stroke-opacity:1"
       d="m 445.22473,133.3759 -4.79822,0 0,14.14214"
       id="path5233"
       inkscape:connector-curvature="0" />
    <g
       transform="matrix(1.25,0,0,-1.25,410.18571,148.07654)"
       id="g5235">
      <path
         id="path5237"
         style="fill:#000000;fill-opacity:1;fill-rule:nonzero;stroke:#000000;stroke-width:0.5;stroke-linecap:butt;stroke-linejoin:miter;stroke-miterlimit:14;stroke-opacity:1;stroke-dasharray:none"
         d="m 0,0 c 0,0.78 -0.54,1.26 -1.5,1.26 -0.78,0 -1.26,-0.48 -1.26,-1.26 0,-1.02 0.48,-1.5 1.26,-1.5 0.96,0 1.5,0.48 1.5,1.5 z"
         inkscape:connector-curvature="0" />
    </g>
    <g
       id="g5239"
       transform="matrix(1.25,0,0,-1.25,478.70698,147.94396)">
      <path
         inkscape:connector-curvature="0"
         d="m 0,0 c 0,0.78 -0.54,1.26 -1.5,1.26 -0.78,0 -1.26,-0.48 -1.26,-1.26 0,-1.02 0.48,-1.5 1.26,-1.5 0.96,0 1.5,0.48 1.5,1.5 z"
         style="fill:#000000;fill-opacity:1;fill-rule:nonzero;stroke:#000000;stroke-width:0.5;stroke-linecap:butt;stroke-linejoin:miter;stroke-miterlimit:14;stroke-opacity:1;stroke-dasharray:none"
         id="path5241" />
    </g>
    <text
       xml:space="preserve"
       style="font-size:medium;font-style:normal;font-variant:normal;font-weight:normal;font-stretch:normal;text-indent:0;text-align:start;text-decoration:none;line-height:normal;letter-spacing:normal;word-spacing:normal;text-transform:none;direction:ltr;block-progression:tb;writing-mode:lr-tb;text-anchor:start;baseline-shift:baseline;color:#000000;fill:#000000;fill-opacity:1;fill-rule:nonzero;stroke:none;marker:none;visibility:visible;display:inline;overflow:visible;enable-background:accumulate;font-family:Arial;-inkscape-font-specification:Arial-BoldMT"
       x="554.57373"
       y="103.57639"
       id="text5249"><tspan
         sodipodi:role="line"
         id="tspan5251"
         x="554.57373"
         y="103.57639">V+</tspan></text>
    <g
       transform="matrix(1.25,0,0,-1.25,564.35528,123.72555)"
       id="g5253">
      <path
         id="path5255"
         style="fill:#000000;fill-opacity:1;fill-rule:nonzero;stroke:#000000;stroke-width:0.5;stroke-linecap:butt;stroke-linejoin:miter;stroke-miterlimit:14;stroke-opacity:1;stroke-dasharray:none"
         d="m 0,0 c 0,0.78 -0.54,1.26 -1.5,1.26 -0.78,0 -1.26,-0.48 -1.26,-1.26 0,-1.02 0.48,-1.5 1.26,-1.5 0.96,0 1.5,0.48 1.5,1.5 z"
         inkscape:connector-curvature="0" />
    </g>
  </g>
</svg>
